HIERARCHY
ROOT Hips
{
	OFFSET -0.001795 -0.223333 0.028219
	CHANNELS 6 Xposition Yposition Zposition Zrotation Yrotation Xrotation 
	JOINT LeftUpLeg
	{
		OFFSET 0.069520 -0.091406 -0.006815
		CHANNELS 3 Zrotation Yrotation Xrotation
		JOINT LeftLeg
		{
			OFFSET 0.034277 -0.375199 -0.004496
			CHANNELS 3 Zrotation Yrotation Xrotation
			JOINT LeftFoot
			{
				OFFSET -0.013596 -0.397961 -0.043693
				CHANNELS 3 Zrotation Yrotation Xrotation
				JOINT LeftToe
				{
					OFFSET 0.026358 -0.055791 0.119288
					CHANNELS 3 Zrotation Yrotation Xrotation
					End Site
					{
						OFFSET 0.000000 0.000000 0.000000
					}
				}
			}
		}
	}
	JOINT RightUpLeg
	{
		OFFSET -0.067670 -0.090522 -0.004320
		CHANNELS 3 Zrotation Yrotation Xrotation
		JOINT RightLeg
		{
			OFFSET -0.038290 -0.382569 -0.008850
			CHANNELS 3 Zrotation Yrotation Xrotation
			JOINT RightFoot
			{
				OFFSET 0.015774 -0.398415 -0.042312
				CHANNELS 3 Zrotation Yrotation Xrotation
				JOINT RightToe
				{
					OFFSET -0.025372 -0.048144 0.123348
					CHANNELS 3 Zrotation Yrotation Xrotation
					End Site
					{
						OFFSET 0.000000 0.000000 0.000000
					}
				}
			}
		}
	}
	JOINT Spine
	{
		OFFSET -0.002533 0.108963 -0.026696
		CHANNELS 3 Zrotation Yrotation Xrotation
		JOINT Spine1
		{
			OFFSET 0.005487 0.135180 0.001092
			CHANNELS 3 Zrotation Yrotation Xrotation
			JOINT Spine2
			{
				OFFSET 0.001457 0.052922 0.025425
				CHANNELS 3 Zrotation Yrotation Xrotation
				JOINT Neck
				{
					OFFSET -0.002778 0.213870 -0.042857
					CHANNELS 3 Zrotation Yrotation Xrotation
					JOINT Head
					{
						OFFSET 0.005152 0.064970 0.051349
						CHANNELS 3 Zrotation Yrotation Xrotation
						End Site
						{
							OFFSET 0.000000 0.000000 0.000000
						}
					}
				}
				JOINT LeftShoulder
				{
					OFFSET 0.078845 0.121749 -0.034090
					CHANNELS 3 Zrotation Yrotation Xrotation
					JOINT LeftArm
					{
						OFFSET 0.090977 0.030469 -0.008868
						CHANNELS 3 Zrotation Yrotation Xrotation
						JOINT LeftForeArm
						{
							OFFSET 0.259612 -0.012772 -0.027456
							CHANNELS 3 Zrotation Yrotation Xrotation
							JOINT LeftHand
							{
								OFFSET 0.249234 0.008986 -0.001171
								CHANNELS 3 Zrotation Yrotation Xrotation
								End Site
								{
									OFFSET 0.000000 0.000000 0.000000
								}
							}
						}
					}
				}
				JOINT RightShoulder
				{
					OFFSET -0.081759 0.118833 -0.038615
					CHANNELS 3 Zrotation Yrotation Xrotation
					JOINT RightArm
					{
						OFFSET -0.096012 0.032551 -0.009143
						CHANNELS 3 Zrotation Yrotation Xrotation
						JOINT RightForeArm
						{
							OFFSET -0.253742 -0.013329 -0.021401
							CHANNELS 3 Zrotation Yrotation Xrotation
							JOINT RightHand
							{
								OFFSET -0.255298 0.007772 -0.005559
								CHANNELS 3 Zrotation Yrotation Xrotation
								End Site
								{
									OFFSET 0.000000 0.000000 0.000000
								}
							}
						}
					}
				}
			}
		}
	}
}
MOTION
Frames: 9
Frame Time: 0.050000
0.000000 0.944064 0.000000 -0.373224 4.454187 7.590879 3.918819 -0.335834 -3.383917 5.510225 -0.607135 0.585801 2.761361 8.911576 9.473333 0.000000 0.000000 0.000000 -0.744271 0.933619 -9.876807 -5.720424 0.972889 4.024423 -21.567711 -33.882581 36.743189 0.000000 0.000000 0.000000 2.566276 0.028213 -1.940803 0.035418 0.004173 -0.776910 -2.940401 -0.068558 -0.256934 3.759906 -2.260934 -4.591832 0.000000 0.000000 0.000000 -9.015280 -1.118418 -0.774978 -31.208163 -8.133253 -1.330332 8.330916 -11.121582 -0.441814 0.000000 0.000000 0.000000 7.949402 -2.535176 -1.571611 35.560234 5.741451 -1.596319 -9.089470 12.362268 -0.324768 0.000000 0.000000 0.000000 
0.000173 0.943365 0.000508 -0.851347 3.424692 8.072572 4.296886 -0.295532 -2.583585 5.473866 -0.452592 -1.301988 3.240297 9.683199 9.760232 0.000000 0.000000 0.000000 -0.926209 0.962377 -10.231142 -4.671970 0.770581 3.394027 -20.919464 -33.555508 35.710692 0.000000 0.000000 0.000000 3.140835 0.014926 -1.953852 -0.714470 0.357564 -1.120445 -2.614934 0.728745 -0.987126 3.139679 -1.623781 -5.870792 0.000000 0.000000 0.000000 -7.720057 -1.100959 -0.641916 -29.666213 -8.480809 -1.153535 7.428478 -10.789756 -0.347290 0.000000 0.000000 0.000000 6.449951 -4.591861 -2.285553 34.317453 4.983965 -1.679890 -8.503267 12.333380 -0.271250 0.000000 0.000000 0.000000 
0.000719 0.942848 0.001199 -0.947354 3.175798 7.894319 4.421084 -0.251207 -1.748958 5.318622 -0.364398 -2.239608 3.333679 9.809612 9.759414 0.000000 0.000000 0.000000 -1.106008 0.978626 -10.526575 -4.247457 0.777189 4.280227 -20.813279 -33.538722 35.397775 0.000000 0.000000 0.000000 3.467576 -0.034337 -1.294179 -0.656221 0.416528 -4.002005 -3.418011 1.067955 1.214046 3.944555 -2.306420 -5.203527 0.000000 0.000000 0.000000 -6.596834 -0.786145 -0.625789 -28.840863 -9.201428 -1.102226 8.810939 -10.042853 -0.450705 0.000000 0.000000 0.000000 6.999313 -4.551107 -2.274346 31.584462 4.129419 -1.946799 -8.612348 10.674271 -0.202852 0.000000 0.000000 0.000000 
0.001751 0.942372 0.002033 -1.111424 2.913222 8.188288 4.682651 -0.264157 -1.856416 4.987095 -0.324623 -2.405696 3.512460 10.048187 9.624494 0.000000 0.000000 0.000000 -1.310384 1.024033 -11.164831 -3.730442 0.740987 4.855582 -20.685695 -33.486110 35.176184 0.000000 0.000000 0.000000 3.354343 0.004258 -1.861432 -0.934555 0.513382 -3.283822 -2.752516 0.268938 0.119140 2.772228 -1.581184 -4.478571 0.000000 0.000000 0.000000 -5.666879 0.074635 -0.765018 -28.663454 -9.448595 -1.030175 9.913224 -9.515344 -0.495633 0.000000 0.000000 0.000000 4.809636 -5.170906 -2.362387 30.642746 4.068495 -1.777954 -8.532451 9.965301 -0.195863 0.000000 0.000000 0.000000 
0.003281 0.942631 0.003195 -1.183305 2.828683 7.967337 4.638413 -0.221324 -1.064389 5.005747 -0.265011 -3.208122 3.494841 10.042093 9.766759 0.000000 0.000000 0.000000 -1.451859 1.014110 -11.150058 -3.503153 0.741475 5.368475 -20.579109 -33.356471 35.262247 0.000000 0.000000 0.000000 3.146119 0.009467 -1.838211 -0.289982 0.246255 -3.630564 -3.149382 0.210647 -0.283590 3.024314 -1.839895 -3.867391 0.000000 0.000000 0.000000 -5.523513 0.286682 -0.833525 -26.766827 -10.059210 -0.845130 9.641356 -8.705396 -0.431571 0.000000 0.000000 0.000000 3.958521 -5.414185 -2.355272 29.084765 3.605487 -1.768351 -7.881095 9.227807 -0.131870 0.000000 0.000000 0.000000 
0.005563 0.942120 0.004476 -1.305926 2.775049 8.072590 4.297092 -0.200851 -0.842947 5.576754 -0.275412 -3.615040 3.565698 10.128498 9.653143 0.000000 0.000000 0.000000 -1.697972 1.021744 -11.418385 -3.097415 0.704304 5.776293 -20.554413 -33.343000 35.237184 0.000000 0.000000 0.000000 3.081576 0.054986 -2.525151 -0.175567 0.179697 -3.108230 -2.798093 -0.540965 -0.638989 2.080007 -1.275998 -2.941367 0.000000 0.000000 0.000000 -4.814366 1.186369 -1.030956 -26.169885 -10.476147 -0.775612 10.037529 -8.818425 -0.448077 0.000000 0.000000 0.000000 1.849959 -5.357183 -2.085341 28.890827 3.452208 -1.732412 -8.197390 8.837488 -0.151836 0.000000 0.000000 0.000000 
0.008368 0.941869 0.005964 -1.249216 2.484551 7.872500 4.188930 -0.165770 -0.321491 5.249252 -0.235961 -3.843717 3.704111 10.296990 9.496250 0.000000 0.000000 0.000000 -2.060600 0.993896 -11.336834 -2.916654 0.698572 6.137462 -20.323635 -33.157603 35.078430 0.000000 0.000000 0.000000 3.172678 0.061359 -2.595843 0.035014 0.100057 -3.506755 -3.035710 -0.809417 -0.691650 1.927296 -1.222946 -2.463222 0.000000 0.000000 0.000000 -4.483368 1.432704 -1.061462 -25.258462 -10.805313 -0.717841 10.224271 -8.832128 -0.454090 0.000000 0.000000 0.000000 1.168399 -5.687390 -2.112229 27.834555 3.308253 -1.692182 -8.086413 8.996497 -0.159168 0.000000 0.000000 0.000000 
0.011594 0.941399 0.007422 -1.362655 2.319340 7.693187 3.885630 -0.138657 -0.066696 5.585820 -0.273596 -3.694463 3.858791 10.472023 9.183541 0.000000 0.000000 0.000000 -2.254117 0.961142 -11.054835 -2.741141 0.669500 6.114344 -20.162925 -33.020819 34.980024 0.000000 0.000000 0.000000 3.132666 0.075549 -2.763032 0.344216 -0.033057 -3.538637 -3.014011 -0.793862 -0.975202 1.638274 -1.035048 -2.198680 0.000000 0.000000 0.000000 -4.200818 1.755632 -1.143542 -24.583722 -11.438580 -0.592571 10.471797 -9.039114 -0.483727 0.000000 0.000000 0.000000 0.572102 -5.907939 -2.104527 27.470110 3.197271 -1.675469 -8.358147 8.657525 -0.161676 0.000000 0.000000 0.000000 
0.014622 0.940965 0.008829 -1.531011 1.972021 7.451348 3.746636 -0.097114 0.502853 5.702541 -0.266421 -3.918240 4.066868 10.748713 8.981350 0.000000 0.000000 0.000000 -2.400572 0.919881 -10.595303 -2.550221 0.623040 5.828373 -19.865138 -32.789105 34.721109 0.000000 0.000000 0.000000 3.197359 0.087613 -2.899005 0.615652 -0.147336 -3.678294 -2.904527 -0.973762 -1.010809 1.319383 -0.860947 -1.616773 0.000000 0.000000 0.000000 -4.139569 2.023317 -1.217205 -24.154739 -11.845935 -0.537893 10.892652 -9.436049 -0.529655 0.000000 0.000000 0.000000 0.240026 -5.802675 -2.016008 27.055475 3.197184 -1.641982 -8.229482 8.941934 -0.174772 0.000000 0.000000 0.000000 
